# xmcd CD database file
#
# Track frame offsets:
#	150
#	16473
#	33138
#	45439
#	68145
#	85851
#	103261
#	122144
#	138053
#	152310
#	168232
#
# Disc length: 2546 seconds
#
# Revision: 0
# Processed by: cddbd v1.4PL0 Copyright (c) Steve Scherf et al.
# Submitted via: CDex 1.50Beta7
#
DISCID=7c09f00b
DTITLE=Davey Brothers - Monkey child
DYEAR=2003
DGENRE=Blues
TTITLE0=Pretty baby - Honey child
TTITLE1=Doggone
TTITLE2=Monkey time
TTITLE3=Baby what you want me to do
TTITLE4=Oh well oh my oowee oh why
TTITLE5=Glow
TTITLE6=Tailback
TTITLE7=I got something
TTITLE8=Shu44le
TTITLE9=Up all night long
TTITLE10=Handmedown
EXTD=YEAR: 2003
EXTT0=
EXTT1=
EXTT2=
EXTT3=
EXTT4=
EXTT5=
EXTT6=
EXTT7=
EXTT8=
EXTT9=
EXTT10=
PLAYORDER=
